<svg t="1682595472569" class="icon" viewBox="0 0 1024 1024" version="1.1" xmlns="http://www.w3.org/2000/svg" p-id="1487" width="200" height="200"><path d="M438.272 102.4a40.96 40.96 0 0 1 40.96 40.96v155.12064h75.40736a41.61024 41.61024 0 0 1 0.65024-0.84992l121.05216-154.5216a40.96 40.96 0 0 1 57.4208-7.05536l0.0512 0.04096a40.81152 40.81152 0 0 1 7.10656 57.27744l-0.06656 0.08704-82.27328 105.02144H774.144c81.43872 0 147.456 66.0224 147.456 147.456V722.944c0 81.43872-66.01728 147.456-147.456 147.456H249.856C168.41728 870.4 102.4 804.38272 102.4 722.944V445.94176c0-81.43872 66.01728-147.456 147.456-147.456h147.456V143.36a40.96 40.96 0 0 1 40.96-40.96z m-48.26112 374.14912c-14.91968-11.136-36.352-7.61856-46.84288 8.02816L189.8496 713.344l-0.93184 1.46944a32.62976 32.62976 0 0 0 9.96352 43.86304l1.47456 0.92672a32.8192 32.8192 0 0 0 43.9808-9.9328l133.0688-198.5792 168.63744 140.16 1.39264 1.09568a32.83456 32.83456 0 0 0 42.14272-2.49856l77.70624-73.56416 108.8512 135.64416 1.16224 1.36704a32.82944 32.82944 0 0 0 44.9024 3.72736 32.61952 32.61952 0 0 0 5.10464-45.93664l-131.13856-163.4048-1.152-1.36192a32.82944 32.82944 0 0 0-46.98624-1.92l-82.432 78.0288-174.208-144.7936z m167.05024-80.0256c-24.8832 0-45.056 20.1216-45.056 44.93824 0 24.82176 20.1728 44.93824 45.056 44.93824 24.8832 0 45.056-20.1216 45.056-44.93824 0-24.81664-20.1728-44.93312-45.056-44.93312z" fill="#6464FF" p-id="1488"></path></svg>